# xmcd
#
# Track frame offsets:
#	150
#	115046
#	154425
#	175811
#
# Disc length: 2831 seconds
#
# Revision: 1
# Processed by: cddbd v1.5.2PL0 Copyright (c) Steve Scherf et al.
# Submitted via: audiograbber 1.83.01
#
DISCID=2b0b0d04
DTITLE=Grateful Dead - 73-07-01A Universal Amphitheatre. Universal City CA
DYEAR=1900
DGENRE=
TTITLE0=Playing In The Band
TTITLE1=Row Jimmy
TTITLE2=El Paso
TTITLE3=Loose Lucy
EXTD=
EXTT0=
EXTT1=
EXTT2=
EXTT3=
PLAYORDER=
